# xmcd
#
# Track frame offsets: 
#        150
#        18195
#        35941
#        62953
#        81201
#        97221
#        116757
#        133062
#        149860
#        169080
#        182052
#        197538
#        212564
#        230203
#
# Disc length: 3268 seconds
#
# Revision: 4
# Processed by: cddbd v1.5.2PL0 Copyright (c) Steve Scherf et al.
# Submitted via: ExactAudioCopy v1.0b3
#
DISCID=db0cc20e
DTITLE=John Campbelljohn - Nerves Of Steel
DYEAR=2001
DGENRE=Blues
TTITLE0=No Philosopher
TTITLE1=I'd Rather Be Rich Than Famous
TTITLE2=Guilt Trip
TTITLE3=Put Your Breaks On
TTITLE4=Do The Right Thing
TTITLE5=Do Onto Me
TTITLE6=Don't You Get Your Fingers Dirty
TTITLE7=Nerves Of Steel
TTITLE8=I'll Be Watching You
TTITLE9=Honey, I've Had My Fill
TTITLE10=Let's Get Twisted
TTITLE11=Take It Out In The Street
TTITLE12=Punching Bag
TTITLE13=Nobody's Business
EXTD=YEAR: 2000
EXTT0=
EXTT1=
EXTT2=
EXTT3=
EXTT4=
EXTT5=
EXTT6=
EXTT7=
EXTT8=
EXTT9=
EXTT10=
EXTT11=
EXTT12=
EXTT13=
PLAYORDER=
